<?xml version="1.0" encoding="UTF-8"?>
<svg viewBox="0 0 640 480" xmlns="http://www.w3.org/2000/svg" xmlns:xlink="http://www.w3.org/1999/xlink">
 <defs>
  <filter id="g">
   <feGaussianBlur stdDeviation="3.7"/>
  </filter>
  <linearGradient id="a">
   <stop stop-color="#fff" offset="0"/>
   <stop stop-color="#fff" stop-opacity="0" offset="1"/>
  </linearGradient>
  <radialGradient id="j" cx="199.28" cy="192.84" r="53.688" gradientTransform="matrix(0 2.8729 -1 0 392.84 -372.51)" gradientUnits="userSpaceOnUse">
   <stop stop-color="#f7f7f7" offset="0"/>
   <stop stop-color="#e1e1e1" offset="1"/>
  </radialGradient>
  <radialGradient id="h" cx="289.43" cy="209.67" r="92.5" gradientTransform="matrix(-.86959 .86959 -1.9615 -1.9615 681.51 178.14)" gradientUnits="userSpaceOnUse" xlink:href="#a"/>
  <radialGradient id="k" cx="199.28" cy="192.84" r="68.844" gradientTransform="matrix(0 2.7782 -.82388 0 358.88 -353.65)" gradientUnits="userSpaceOnUse">
   <stop stop-color="#6c6c6c" offset="0"/>
   <stop stop-color="#3e3e3e" offset="1"/>
  </radialGradient>
  <radialGradient id="i" cx="289.43" cy="209.67" r="92.5" gradientTransform="matrix(.86959 -.86959 1.9615 1.9615 -281.51 221.86)" gradientUnits="userSpaceOnUse" xlink:href="#a"/>
 </defs>
 <g fill-rule="evenodd" stroke-width="2.7">
  <path d="m254.59 19.888c-130.34 0-236.12 101.27-236.12 226.06 0 124.78 105.78 226.06 236.12 226.06s236.12-101.27 236.12-226.06c0-124.78-105.78-226.06-236.12-226.06zm0 219.72c3.6586 0 6.621 2.8361 6.6211 6.3387 0 3.5026-2.9625 6.3387-6.6211 6.3387s-6.6211-2.8362-6.6211-6.3387c0-3.5026 2.9625-6.3387 6.6211-6.3387z" fill-opacity=".509" filter="url(#g)"/>
  <path d="m251.12 15c-130.34 0-236.12 101.27-236.12 226.06 0 124.78 105.78 226.06 236.12 226.06s236.12-101.27 236.12-226.06c0-124.78-105.78-226.06-236.12-226.06zm0 219.72c3.6586 0 6.621 2.8362 6.6211 6.3387 0 3.5026-2.9625 6.3387-6.6211 6.3387s-6.621-2.8361-6.6211-6.3387c0-3.5026 2.9625-6.3387 6.6211-6.3387z"/>
  <path d="m251.12 158.77c-47.428 0-85.954 36.883-85.954 82.289s38.526 82.289 85.954 82.289 85.954-36.883 85.954-82.289-38.526-82.289-85.954-82.289zm0 76.867c3.1323 0 5.6638 2.4236 5.6638 5.4223s-2.5315 5.4223-5.6638 5.4223-5.6638-2.4236-5.6638-5.4223 2.5315-5.4223 5.6638-5.4223z" fill="#333"/>
  <path d="m251.12 15c-130.34 0-236.12 101.27-236.12 226.06 0 124.78 105.78 226.06 236.12 226.06s236.12-101.27 236.12-226.06c0-124.78-105.78-226.06-236.12-226.06zm0 4.3913c127.82 0 231.58 99.291 231.58 221.66s-103.75 221.7-231.58 221.7c-127.82 0-231.58-99.329-231.58-221.7s103.75-221.66 231.58-221.66z"/>
  <path d="m370.54 241.06c0 63.114-53.493 114.36-119.42 114.36v107.34c127.82 0 231.58-99.329 231.58-221.7h-112.16z" fill="url(#i)"/>
  <path d="m131.71 241.06c0-63.114 53.493-114.36 119.42-114.36v-107.34c-127.82 0-231.58 99.329-231.58 221.7h112.16z" fill="url(#h)"/>
  <path d="m313.26 181.57c-34.292-32.829-89.974-32.829-124.26 0-34.292 32.829-34.292 86.137 0 118.97 34.292 32.829 89.974 32.829 124.26 0 34.292-32.829 34.292-86.137 0-118.97zm-2.7357 2.6191c32.782 31.384 32.782 82.344 0 113.73-32.782 31.384-86.012 31.384-118.79 0-32.782-31.384-32.782-82.344 0-113.73 32.782-31.384 86.012-31.384 118.79 0z" fill="url(#k)"/>
  <path d="m299.58 194.67c-26.743-25.602-70.165-25.602-96.908 0s-26.743 67.173 0 92.775 70.165 25.602 96.908 0 26.743-67.173 0-92.775zm-43.772 41.906c2.587 2.4767 2.587 6.4876 0 8.9643s-6.7766 2.4767-9.3636 0-2.587-6.4876 0-8.9643 6.7766-2.4767 9.3636 0z" fill="url(#j)"/>
  <g fill="#fff">
   <path d="m307.22 187.35c-9.0133-8.629-19.664-14.728-30.996-18.334l-1.5794 4.5362c10.613 3.3779 20.581 9.1186 29.022 17.2 10.283 9.8442 16.919 21.853 19.912 34.507l4.8792-1.053c-3.1935-13.509-10.259-26.346-21.237-36.856z" opacity=".743"/>
   <path d="m177.88 229.15l-4.9638-0.81c-4.1317 23.428 3.24 48.356 22.112 66.422 18.821 18.018 44.769 25.082 69.184 21.196l-0.8179-4.7252c-22.879 3.6461-47.176-2.989-64.812-19.873-17.68-16.926-24.574-40.259-20.702-62.21z" opacity=".743"/>
  </g>
 </g>
 <text x="-256" y="191" font-family="serif" font-size="24" stroke-width="0" text-anchor="middle" xml:space="preserve"/>
</svg>
